<svg xmlns="http://www.w3.org/2000/svg" viewBox="0 0 512 512" width="50" height="50">
  <defs>
    <linearGradient id="grad" x1="0%" y1="0%" x2="100%" y2="100%">
      <stop offset="0%" style="stop-color:#17a2b8;stop-opacity:1" />
      <stop offset="100%" style="stop-color:#6f42c1;stop-opacity:1" />
    </linearGradient>
  </defs>
  <circle cx="256" cy="256" r="256" fill="url(#grad)"/>
  <!-- Calculator -->
  <rect x="118" y="118" width="172" height="220" rx="8" fill="none" stroke="white" stroke-width="12"/>
  <rect x="135" y="135" width="138" height="40" rx="4" fill="none" stroke="white" stroke-width="10"/>
  <circle cx="151" cy="195" r="12" fill="none" stroke="white" stroke-width="8"/>
  <circle cx="205" cy="195" r="12" fill="none" stroke="white" stroke-width="8"/>
  <circle cx="259" cy="195" r="12" fill="none" stroke="white" stroke-width="8"/>
  <circle cx="151" cy="243" r="12" fill="none" stroke="white" stroke-width="8"/>
  <circle cx="205" cy="243" r="12" fill="none" stroke="white" stroke-width="8"/>
  <circle cx="259" cy="243" r="12" fill="none" stroke="white" stroke-width="8"/>
  <circle cx="151" cy="291" r="12" fill="none" stroke="white" stroke-width="8"/>
  <circle cx="205" cy="291" r="12" fill="none" stroke="white" stroke-width="8"/>
  <circle cx="259" cy="291" r="12" fill="none" stroke="white" stroke-width="8"/>
  <!-- Dollar Sign Circle -->
  <circle cx="340" cy="280" r="65" fill="white"/>
  <text x="340" y="310" font-size="90" font-weight="bold" fill="#0066cc" text-anchor="middle" font-family="Arial">$</text>
  <!-- Chart Line -->
  <polyline points="360,200 400,180 420,220 450,150" fill="none" stroke="white" stroke-width="12" stroke-linecap="round" stroke-linejoin="round"/>
  <!-- Arrow -->
  <polygon points="450,150 480,140 460,180" fill="white"/>
  <!-- Horizontal bars on right -->
  <rect x="400" y="320" width="70" height="12" rx="6" fill="white"/>
  <rect x="400" y="345" width="70" height="12" rx="6" fill="white"/>
</svg>